<svg width="80" height="7" viewBox="0 0 80 7" fill="none" xmlns="http://www.w3.org/2000/svg">
  <path
    d="M74.4845 6.88803C72.1609 6.88803 69.3043 3.87377 69.1828 3.74636C67.8785 2.22944 66.5591 0.880263 64.6183 0.880263C62.4909 0.880263 59.9917 3.70583 59.9656 3.73398L59.7493 3.96977C58.3713 5.47007 57.0698 6.88792 54.7522 6.88792C52.4287 6.88792 49.5721 3.87366 49.4506 3.74625C48.1463 2.22933 46.8269 0.88015 44.8861 0.88015C42.7587 0.88015 40.2595 3.7057 40.2333 3.73385L40.0295 3.9487C38.4559 5.59077 37.2141 6.88777 35.0208 6.88777C32.6965 6.88777 29.8393 3.87351 29.7191 3.74611C28.4141 2.22918 27.0939 0.880003 25.1546 0.880003C23.0272 0.880003 20.528 3.70555 20.5019 3.7337L20.2833 3.9717C18.9067 5.47127 17.6046 6.88688 15.2876 6.88688C12.9633 6.88688 10.1061 3.87262 9.98592 3.74522C8.68094 2.22829 7.36074 0.879115 5.42148 0.879115C3.49 0.879115 1.72999 1.94031 0.826656 3.64892C0.714532 3.86303 0.448325 3.94479 0.233492 3.83194C0.0193803 3.71764 -0.0623808 3.45288 0.051197 3.23877C1.10733 1.24303 3.16453 0.00174074 5.42083 0.00174074C7.73064 0.00174074 9.26416 1.56135 10.6371 3.15785C11.3735 3.94127 13.6725 6.00877 15.2869 6.00877C17.2192 6.00877 18.2853 4.84775 19.6358 3.37785L19.8478 3.14709C19.9526 3.02701 22.6313 0.00190463 25.153 0.00190463C27.4628 0.00190463 28.9963 1.56151 30.3693 3.15801C31.1056 3.94144 33.4046 6.00894 35.0191 6.00894C36.8376 6.00894 37.8554 4.94773 39.3948 3.34116L39.5872 3.14007C39.6863 3.02577 42.365 0.00136778 44.8859 0.00136778C47.1971 0.00136778 48.7308 1.56098 50.1022 3.15748C50.8387 3.93946 53.1376 6.00766 54.752 6.00766C56.685 6.00766 57.7526 4.84592 59.1039 3.37377L59.3145 3.14518C59.4193 3.02511 62.098 0 64.6183 0C66.9295 0 68.4632 1.55961 69.8346 3.15611C70.5709 3.93809 72.87 6.00629 74.4845 6.00629C76.337 6.00629 78.0622 5.00803 78.9889 3.40148C79.1096 3.19098 79.3772 3.11792 79.5885 3.24016C79.7983 3.36098 79.87 3.62935 79.7498 3.83912C78.6661 5.72135 76.6487 6.8882 74.4843 6.8882L74.4845 6.88803Z"
    fill="#343434"
  />
</svg>